<?xml version="1.0" encoding="UTF-8" standalone="no"?>
<svg
   role="img"
   viewBox="0 0 24 24"
   version="1.1"
   id="svg6"
   sodipodi:docname="devrant.svg"
   inkscape:version="1.1.2 (0a00cf5339, 2022-02-04)"
   xmlns:inkscape="http://www.inkscape.org/namespaces/inkscape"
   xmlns:sodipodi="http://sodipodi.sourceforge.net/DTD/sodipodi-0.dtd"
   xmlns="http://www.w3.org/2000/svg"
   xmlns:svg="http://www.w3.org/2000/svg"
   xmlns:rdf="http://www.w3.org/1999/02/22-rdf-syntax-ns#"
   xmlns:cc="http://creativecommons.org/ns#"
   xmlns:dc="http://purl.org/dc/elements/1.1/">
  <defs
     id="defs10" />
  <sodipodi:namedview
     id="namedview8"
     pagecolor="#505050"
     bordercolor="#ffffff"
     borderopacity="1"
     inkscape:pageshadow="0"
     inkscape:pageopacity="0"
     inkscape:pagecheckerboard="1"
     showgrid="false"
     inkscape:zoom="37.125"
     inkscape:cx="7.8518519"
     inkscape:cy="12"
     inkscape:window-width="2560"
     inkscape:window-height="1048"
     inkscape:window-x="0"
     inkscape:window-y="0"
     inkscape:window-maximized="1"
     inkscape:current-layer="svg6" />
  <title
     id="title2">devRant</title>
  <path
     id="path4-3"
     style="fill:#ffffff;fill-opacity:1"
     d="M 11.214844,2.0097656 C 8.5503381,2.0466358 5.7630895,3.3596507 4.598668,5.8618016 3.5215546,8.0950932 3.5052464,10.718146 3.9912338,13.106345 c 0.5140446,2.343022 2.2812024,4.36616 4.6032044,5.044298 0.6417615,0.07569 0.9384327,0.583457 1.2317337,1.095451 -0.09686,-0.88979 0.7473141,-0.610334 1.3406251,-0.642578 2.36697,0.116323 4.95994,-0.194624 6.771243,-1.875192 2.211857,-2.000827 2.585496,-5.210396 2.285315,-8.0208382 C 19.996019,6.1143339 18.42645,3.5690736 15.922454,2.6394604 14.433974,2.0189066 12.803933,1.9610105 11.214844,2.0097656 Z" />
  <path
     d="M11.72 0C5.482-.015 1.592 4.046 1.701 10.322c-.074 3.907 1.437 7.002 4.127 8.734.663.405 1.364.737 2.137.995l2.174 3.353c.333.848.7.774.848-.11l.59-2.69h.442c2.469.073 4.57-.517 6.228-1.585 2.616-1.733 4.126-4.791 4.053-8.697C22.41 3.948 18.431-.144 12.019.004c-.1-.002-.2-.004-.299-.004zm4.571 4.636c.258 0 .516.092.7.276h.001c.185.185.295.442.295.737 0 .148 0 .295-.074.406l-3.722 9.25c-.258.441-.627.552-.885.552a1.007 1.007 0 0 1-.994-.995c0-.148.037-.258.073-.406l3.685-9.212c.073-.147.148-.258.221-.332a.989.989 0 0 1 .7-.276zM9.456 7.5c.313 0 .626.12.866.359h.001c.221.221.368.516.331.848 0 .332-.147.589-.368.848-.222.258-.517.369-.848.369-.332 0-.59-.148-.848-.37-.259-.22-.37-.515-.37-.847s.149-.627.37-.848c.24-.24.552-.36.866-.36zm0 4.974c.313 0 .626.12.866.36h.001c.221.258.368.553.331.848a1.2 1.2 0 0 1-.368.848c-.221.258-.516.368-.848.368a1.2 1.2 0 0 1-.848-.368c-.259-.222-.37-.516-.37-.848s.149-.627.37-.848c.24-.24.552-.36.866-.36z"
     id="path4"
     style="fill:#f99a66;fill-opacity:1" />
  <metadata
     id="metadata827">
    <rdf:RDF>
      <cc:Work
         rdf:about="">
        <dc:title>devRant</dc:title>
      </cc:Work>
    </rdf:RDF>
  </metadata>
</svg>
